<?xml version="1.0" encoding="utf-8"?>
<!-- Generator: Adobe Illustrator 21.1.0, SVG Export Plug-In . SVG Version: 6.00 Build 0)  -->
<svg version="1.0" id="Warstwa_1" xmlns="http://www.w3.org/2000/svg" xmlns:xlink="http://www.w3.org/1999/xlink" x="0px" y="0px"
	 viewBox="0 0 792 792" enable-background="new 0 0 792 792" xml:space="preserve">
<g>
	<path d="M717,308.5c-12.9-9.8-23.1-32.3-30-44.7c-5-9.2-19.2-32.7-30.5-46.8c-10.3-12.7-27.4-36-65.9-44.3
		c-1.1-2.7-3.9-7.6-9.8-13.5l4.4-22.6c-37.6-35-122.4-65.3-139.8-66.1l-11.1,16.8c0,0-16.9-1.9-20.5,10.2c-1-2.6-2.1-5-3.1-7.6
		c-4.8-12.9-11.3-21-12.7-22.4c-4-4.2-12.3-6-16.5-1.5c-2.9,3.1-7.9,10.8-9.7,23.5c-6.1-3.2-13.9-2.3-13.9-2.3l-11.1-16.8
		c-17.4,0.8-102.2,31.1-139.8,66.1l4.3,22.6c-5.8,6-8.5,10.8-9.8,13.5c-38.7,8.4-55.6,31.6-66,44.3c-11.3,13.9-25.5,37.6-30.5,46.8
		c-6.8,12.4-17.1,34.8-30,44.7c-5.2,4-75.1,58-14.3,96.8c-5.8,18.7-2.8,27.4,1.1,38.5c4,11.1,41.8,121.1,120.3,82.7
		c-0.3,10.3,1,77.9-6.1,136.1c-3.2,26.6-6.1,48.5-6.1,48.5l4.2,2.3c5.5,3.1,11.1,4,16.1,4c7.6,0,13.5-2.3,15.2-3.1l2.6-1.1
		c0,0,1.6-25.5,1.9-42.3c7.1,2.6,15.6,3.1,22.6,3.5c0,0,6.8,0,8.4-1.1c6.8,4.7,20.3,5,23.2,5h0.3c7.4-0.2,16.8-1.1,22.1-5.8
		c0,0.2,0.2,0.2,0.3,0.3c2.1,1.3,5.3,1.9,9.5,1.9c8.4,0,21-3.2,25.3-7.1c5.8-5.2,10.6-15,12.6-25.2c13.7,4,22.6,6.3,36.3,7.3
		c0,0-0.3,2.4-0.3,3.2c-1,10.8-4.7,16.8-12.1,19.5l-3.2,1.1l0.2,3.4c0.3,8.1,2.3,15,4.8,21c4,9.2,10.2,16.1,16.3,21
		c8.4,6.8,16.9,9.7,19.8,9.7h1l0.8-0.3c3.6-1.5,7.1-3.5,10.3-6.1c6.9-5.5,12.7-12.9,17.1-20.8c4.7-8.4,7.4-17.3,7.4-24.3v-3.4
		l-3.2-1c-5.8-1.6-11.1-8.4-11.9-19.4c0-1,0-3.7,0-3.7c12.6-1,21-2.6,28.1-5c3.2,14.3,10.5,22.7,14.5,24.8c7.7,3.9,17.7,4.5,26,5
		h0.7c1,0,1.9,0.2,2.9,0.2c1.3,0,3.2-0.2,4.8-1.3c6.8,4.7,20.3,5,23.2,5h0.3c7.4-0.2,16.8-1.1,22.1-5.8c0,0.2,0.2,0.2,0.3,0.3
		c2.1,1.3,5.3,1.9,9.5,1.9c8.4,0,21.5-2.3,25.5-6.5c1.4-1.4,7.7-7.3,10.2-15c0.2,8.2-0.8,44.2-0.6,56.4v3.1l2.7,1.3
		c3.9,1.8,9.2,3.1,15,3.1c5.3,0,11.1-1.1,16.4-4l4.2-2.3c0,0-15.2-78.5-13.4-185.1c78.5,38.4,116.3-71.6,120.3-82.7
		c4-11.1,6.9-19.8,1.1-38.5C792.2,366.5,722.2,312.5,717,308.5z M278.2,567.9c-5.2-0.3-10.8-0.5-16.8-0.5h-1
		c-22.3,0-35.3,3.4-43.5,8.1c-0.3,0.2-0.5,0.3-0.8,0.5l-0.2,0.2c-2.9,1.8-5.2,3.7-6.9,5.7c-0.8-28.4-2.1-56.3-3.4-79.8
		C217,531.2,235.8,553.4,278.2,567.9z M584.9,596.3c-0.2-0.8-0.5-1.6-0.6-2.3c-0.5-1.8-1-3.4-1.6-5c-5-14-26.9-21.3-65-21.6
		c39.3-14.2,60.3-37.9,71.1-67.2C587.2,514.1,585.8,552.9,584.9,596.3z"/>
	<path fill="#CE7D32" d="M544.3,241.9l-0.3-0.2c-3.5-1.1-6.9-1.5-10.5-1.5c-27.7,0-53.4,30-54.5,31.4c-34,40.5-37.9,80.5-37.9,106.9
		c0,25.3,0,72.7,55.2,86.9c0.2,0,0.6,0.2,1.1,0.3c19.5,5.6,55,9.8,72.1-26.6c10.5-22.4,16.8-49.8,15.8-80.1c0-1.8-0.2-3.4-0.2-5.2
		c-0.6,3.7-3.7,9.5-12.7,9.5c0,0,0,0-0.2,0c0.6,1.5,1.8,1.8,3.1,1.8c1.8,0,4-0.8,5.3-1.3c0.2,4.4-5.8,8.2-9.5,8.2
		c-0.2,0-0.3,0-0.5,0c0.8,2.3,3.2,20-3.5,40.8c0,0,0,0,0,0.2c-0.2,0.5-0.3,0.8-0.5,1.3c-3.7,10-11.4,13.2-15.8,15.6
		c-2.7,1.5-14.5,6.8-32.3,9c-5,0.6-10.6,1.1-16.4,1.1c-3.2,0-6.6-0.2-10.2-0.5c-5.5-0.5-11.3-1.3-17.3-2.6
		c-7.7-1.9-11.6-3.4-16.3-14.4c-1-2.3-2.1-5.2-3.2-8.7c-0.3-1.1-0.8-2.4-1.1-3.7c-3.2-12.3-5.2-30,0.6-50
		c9.8-33.7,36.9-42.1,50.6-43.2c2.1-0.2,4-0.2,6-0.2c23.7,0,37.1,11.6,44.8,20.2c1.6,1.8,8.2,6.1,15.2,6.1c4.5,0,9.2-1.9,12.4-7.7
		c-1.1-12.7-2.9-24.2-4.4-33.1C569.9,249,550.9,243.8,544.3,241.9z M550.1,284.4c-13.4-11.1-26.4-14-40-10.8
		c-6.3,1.5-8.2-5.3-4.5-9.4c10.5-11.1,35.8-9.7,50.2,13.1C557.7,280.4,555.4,288.8,550.1,284.4z M218.2,355.2c-3.4,0-7.3-1.1-10.3-4
		c0-2.1,0-4.7,0.2-7.9c1.5,4.7,5.8,9.7,16.3,9.7c0.2,0,0.3,0,0.3,0C224.2,354.1,221.5,355.2,218.2,355.2z M223.4,439.3
		c17.1,36.4,52.6,32.3,72.1,26.6c0.5-0.2,0.8-0.2,1.1-0.3c55.2-14.4,55.2-61.6,55.2-86.9c0-26.6-3.9-66.4-37.9-106.9
		c-1.3-1.6-33.5-39.5-65-30l-0.3,0.2c-6.8,1.9-24.5,7.4-35,61v0.2c-1.9,9.8-3.5,19.7-4.4,29.3c-0.2,1-0.2,2.1-0.3,2.9
		c3.2,6.3,8.1,8.2,12.7,8.2c6.8,0,13.5-4.4,15.2-6.1c7.7-8.5,21.1-20.2,44.8-20.2c1.9,0,3.9,0,6,0.2c13.7,1.1,40.8,9.5,50.6,43.2
		c5.8,20,4,37.7,0.6,50c-0.3,1.3-0.6,2.6-1.1,3.7c-1.1,3.5-2.3,6.5-3.2,8.7c-4.8,10.8-8.5,12.4-16.3,14.4c-6,1.3-11.8,2.1-17.3,2.6
		c-3.5,0.3-6.9,0.5-10.2,0.5c-6,0-11.4-0.5-16.4-1.1c-17.6-2.3-29.5-7.6-32.3-9c-4.4-2.4-12.1-5.6-15.8-15.6
		c-0.2-0.5-0.3-0.8-0.5-1.3c0,0,0,0,0-0.2c-6.8-21-4.2-38.5-3.5-40.8c-0.2,0-0.3,0-0.5,0c-3.7,0-9.7-3.9-9.5-8.2
		c1.5,0.5,3.5,1.3,5.3,1.3c1.5,0,2.6-0.5,3.1-1.8c0,0,0,0-0.2,0c-8.2,0-11.4-4.8-12.6-8.5c0,1.5,0,2.7,0,4.4
		C207.3,389.7,212.8,416.8,223.4,439.3z M282.4,273.5c-13.5-3.2-26.6-0.3-40,10.8c-5.3,4.4-7.6-4-5.6-7.1
		c14.2-22.7,39.5-24.2,50.2-13.1C290.6,268.2,288.7,275.1,282.4,273.5z M742.8,387.2c-1.6,2.3-12.4,15-23.7,15.8
		c-10.5,0.8-22.1-6.3-28.1-27.3c-0.6-2.1-2.1-1.1-1.9,0.5c1.1,14.7,11.4,27.4,19,31c6.9,3.2,13.9,2.1,17.6,1
		c8.7,17.4-4.8,44.5-8.9,52.9c-44,93.4-96.3,65.6-106.6,58.9c0.3-8.7,0-16.8-0.2-21.3c14.5,11.4,45.6,17.3,68.7-3.5
		c12.4-11,21.8-19.4,26-35.5c0.6-2.7-0.6-2.9-1.8-0.5c-7.1,14.2-19.7,25.8-29.5,32.4c-26.8,18.2-51.8,8.1-63.5-2.3
		c-0.2-0.2-0.2-0.2-0.2-0.2c0-1,8.4-179.5,8.7-191.6c0.5-11.9-4.5-71.9-28.7-108.9c1.8-3.2,2.9-5.5,3.4-7.9
		c34.8,10.3,48.1,28.5,64.2,50.2c14,18.9,23.5,36.4,26.1,40.3c4.7,7.3,15.2,31.4,34.5,46.8c4.5,3.5,13.1,11.9,18.5,19.5
		C747.7,352.3,754.9,370.7,742.8,387.2z M568.2,353c10.2,0,14.5-4.7,16.1-9.2c0.2,2.4,0.3,4.8,0.5,7.4c-3.1,3.1-6.9,4-10.3,4
		c-3.4,0-6-1.1-6.6-2.3C568,353,568,353,568.2,353z M182.3,519.4c-10.5,6.8-62.6,34.5-106.6-58.9c-3.9-8.4-17.4-35.6-8.9-52.9
		c3.7,1.1,10.5,2.1,17.6-1c7.7-3.5,18.1-16.3,19-31c0.2-1.6-1.3-2.6-1.9-0.5c-6,21-17.6,28.1-28.1,27.3c-11.3-1-22.1-13.5-23.7-15.8
		c-12.1-16.6-4.8-35,6.5-49.2c5.5-7.4,14-15.8,18.5-19.5c19.4-15.3,29.8-39.7,34.5-46.8c2.6-4,12.1-21.4,26.1-40.3
		c16.1-21.6,29.3-39.8,64.2-50.2c0.5,2.3,1.5,4.7,3.4,7.9c-24.4,36.9-29.2,96.8-28.7,108.9c0.5,11.9,7.9,171.7,8.7,190.8
		c0,0.3,0,0.6,0,0.8c-11.8,10.2-36.8,20.5-63.7,2.4c-9.7-6.6-22.4-18.1-29.5-32.4c-1.3-2.9-2.6-2.7-1.9,0
		c4.2,16.1,13.5,24.5,26,35.5c23.2,20.8,54.3,15,68.7,3.5C182.3,502.6,182,510.7,182.3,519.4z"/>
	<path fill="#D30584" d="M379.7,662.4c0,2.9-2.1,12.3-12.1,17.4c2.9,15.8,13.1,30.8,27.1,36.1c0.5,0.2,0.5,0.2,1.1-0.2
		c17.7-11.1,22.9-31.6,23.7-36c-3.7-1.6-10.8-6.9-11.9-17.4C399.3,662,379.7,662.4,379.7,662.4z M399,680.9
		c4.2,1.8,6.4,5.7,6.4,10.4c0,1.3-0.2,2.4-0.5,3.5c-1.1-0.6-5-3.2-6.1-3.7c0-1.5-0.6-2.7-1.8-3.7C397.3,686.7,398.9,681.1,399,680.9
		z M393.7,675.8c4.8,0,3.4,6.3,1.8,10.6c-0.5-0.2-1.1-0.3-1.6-0.3c-0.8,0-1.5,0.2-2.1,0.5C390.3,682.4,388.8,675.8,393.7,675.8z
		 M393.9,687.6c1.9,0,3.5,1.6,3.5,3.5c0,1.9-1.6,3.5-3.5,3.5s-3.5-1.6-3.5-3.5C390.3,689.2,391.9,687.6,393.9,687.6z M388.4,680.8
		c0.2,0.6,1.5,6,1.8,6.9c-0.8,1-1.3,2.1-1.3,3.4c-1.1,0.6-5.7,3.6-6.1,4c-0.3-1.1-0.6-2.6-0.6-3.9
		C382.1,686.8,384.7,682.8,388.4,680.8z M375.8,693.4c-0.3,0-1.8-0.3-1.8-2c0-1.5,0.8-2.3,1.8-2.3c1.2,0,4.5,0,4.5,0
		c-0.2,0.8-0.3,3.4,0,4.5C380.3,693.5,377,693.4,375.8,693.4z M373.2,686.9c-0.6,0-2-0.8-2.1-1.9c-0.1-1.7,1-2.4,2.1-2.6l10.3-0.2
		c-1.3,1.3-1.9,2.9-2.5,4.5L373.2,686.9z M383.2,702.1c-3.5-3.2,1.8-7,6-9c0.5,1.3,1.5,2.3,2.6,2.7C390,700,386.7,705.3,383.2,702.1
		z M393.9,703.1c-1.5,0-2.7-0.2-3.9-0.6c0.8-1.2,3.7-6.3,3.7-6.3s3.5,4.9,4.4,6.1C396.8,702.8,395.3,703.1,393.9,703.1z
		 M404.9,701.7c-3.4,3.5-7-1.8-9.1-6c1.1-0.5,2.1-1.5,2.6-2.6C402.7,694.9,408.3,698.3,404.9,701.7z M411.3,693.1l-4,0
		c0.2-0.5,0.4-2.5-0.3-4.4l4.2,0c0.5,0,1.9,0.4,1.9,2.3C413,692,412.4,693.1,411.3,693.1z M415.5,684.1c0,1.5-1.5,2.2-1.9,2.2
		l-7.2,0.2c-0.4-1.9-1.1-3-2.6-4.3l9.7-0.4C413.8,681.8,415.5,682.3,415.5,684.1z M606.6,596.6c1.6,56.6,5,88,10.2,112.4
		c-10.5,5.8-22.1,3.1-27.1,0.8c-1.3-68.4,6-256.7,6.5-272.2c1.3-44.7,6.5-106.8-12.1-167.1c-10-32.3-23.5-82.9-109.3-122.7
		c-5.3-2.4-27.1-11.3-39.2-13.5c-3.4-4.2-8.9-11.8-11.8-16.9c3.7,0.2,34.2,9.5,56.9,19.7c28.4,12.4,65.3,33.7,82.9,55.8
		c29.8,37.4,38.4,62.1,41.1,142.4C606.9,400.9,603.2,484.7,606.6,596.6z M565.8,186.2c6.8,0.8,13.5,2.6,18.9,4.8
		c38.9,62.1,27.3,167.5,25.8,184c-0.2-0.3-0.2-0.6-0.2-1c-0.2-2.4-0.2-5.8-0.2-9.7C610.7,328.8,617,237.4,565.8,186.2z M226.9,186.2
		c-57.9,57.6-42.6,166.6-44.7,188.8c-1.3-16.4-12.9-121.9,25.8-184C213.4,188.8,220.2,186.9,226.9,186.2z M497.2,434.6
		c3.5,0.2,6.1,0.2,8.9,0c0.3,0,0.5,0,0.8,0h0.5c1,0,1.8-0.2,2.6-0.2c0.3,0,0.8,0,1.1-0.2h0.3c0.8,0,1.6-0.2,2.4-0.2
		c0.5,0,1-0.2,1.5-0.2c0.8-0.2,1.5-0.2,2.3-0.3c0.5,0,1-0.2,1.5-0.2c0.6-0.2,1.5-0.2,2.1-0.3l1.3-0.2c0.8-0.2,1.5-0.3,2.1-0.3
		l1.1-0.2c1-0.2,1.8-0.3,2.7-0.6h0.2c9.8-7.6,15.5-19.2,15.5-31.6c0.2-21.9-17.7-40-39.7-40c-22.1,0-40,17.9-40,40
		c0,13.1,6.3,25.3,17.1,32.7c3.4,0.5,6.8,1,10,1.3v1.5l0.2-1.5c1.6,0.2,3.2,0.2,4.8,0.3v0H497.2z M474.3,400.2c0-16.6,13.4-30,30-30
		c1,0,1.8,0,2.7,0.2c0.8,0.2,1.6,0.2,2.3,0.3c0.2-0.2,0.3-0.3,0.5-0.5c1.9-1.5,4.4-2.3,6.9-2.3c6.3,0,11.6,5.3,11.6,11.6
		c0,0.6-0.2,1.3-0.2,1.8s0,0.8-0.2,1.1c0,0.2-0.2,0.3-0.2,0.5c4.4,6.3,6.3,13.2,6.5,16.6c0,0.3,0,0.5,0,0.6c0,16.6-13.4,30-30,30
		C487.7,430.2,474.3,416.8,474.3,400.2z M378.5,644.2c-16.9-0.5-31.9-3.5-44.3-7.9c1.6-12.1,0.6-25-2.1-36.6
		c14.4,6.6,31.4,12.4,47.7,15.3C377.7,617.6,376,640.7,378.5,644.2z M216.6,155.1c-1.3-5.8-2.6-10.8-3.1-15.6
		C246,110,324.2,79.6,343.9,77.2c1.6,2.3,4.8,6.8,7.3,10.6C329.8,93,274.5,114,216.6,155.1z M204.9,668.7
		c-0.3,15.2-0.8,29.2-1.8,41.3c-5.2,2.3-16.6,5-27.3-0.8c5.3-10.2,8.4-55.8,10.2-112.4c3.5-111.9-0.3-195.8,1.9-261.4
		c2.7-80.3,11.3-105,41.1-142.4c14.2-17.9,64.5-47.7,82.7-56.4c2.9-1.5,4.7-2.4,6.1-3.1c-1,4.7,1.1,9.2,5.6,12.1
		c-1.3,0.5-3.1,1.1-4.8,2.1c-86.6,40-100.1,90.6-110.1,122.9C190,330.9,195,393.1,196.5,437.6c0.2,5.8,5.3,76.4,7.4,150
		c0,0.2-0.2,0.5-0.3,0.6c-16.3,29-13.1,51.6-9.7,62.4C196.8,659.9,201.3,666.1,204.9,668.7z M576.1,155.1
		c-59.5-44.5-115.1-62.2-134.2-66.6c2.3-3.9,5.5-9.2,7.1-11.6c19.7,2.4,97.7,32.9,130.1,62.4C578.7,144.3,577.2,149.3,576.1,155.1z
		 M450.6,602.1c-5.8,15-6.5,27.6-5.5,36.9c-10.3,2.9-22.3,4.8-35.2,5.2c2.6-3.5,0.8-26.6-1.3-29.2
		C422.7,612.4,437.6,607.8,450.6,602.1z M288.4,358.9c-22.9,0-41.3,18.5-41.3,41.4c0,13.4,6.3,25.3,16.3,32.9c0.2,0,0.3,0,0.5,0.2
		c0.8,0.2,1.8,0.3,2.7,0.6c0.3,0,0.8,0.2,1.1,0.2c0.6,0.2,1.5,0.3,2.3,0.3c0.5,0,1,0.2,1.5,0.2c0.6,0.2,1.5,0.2,2.1,0.3
		c0.5,0,1,0.2,1.5,0.2c0.8,0.2,1.5,0.2,2.3,0.3c0.5,0,1,0.2,1.6,0.2c0.8,0,1.6,0.2,2.4,0.2c0.5,0,1,0.2,1.5,0.2
		c0.8,0,1.8,0.2,2.7,0.2c0.5,0,1,0,1.3,0c1.3,0,2.7,0,4.2,0c1.6,0,3.2,0,4.8-0.2c0.3,0,0.6,0,0.8,0c1.6,0,3.2-0.2,4.8-0.3h0.2
		c3.5-0.3,6.9-0.8,10.5-1.3c10.8-7.4,17.9-20,17.9-34C329.7,377.5,311.1,358.9,288.4,358.9z M288.4,430.4c-16.6,0-30-13.4-30-30
		c0-0.3,0-0.8,0-1.3c0.2-2.9,1-7.4,3.1-11.9c0.5-1.1,1-2.1,1.6-3.2c0.5-0.6,0.8-1.3,1.3-1.9c-0.2-0.2-0.2-0.3-0.2-0.5
		c0-0.2,0-0.2,0-0.3c-0.2-0.3-0.2-0.8-0.2-1.3c0-6.5,5.3-11.8,11.8-11.8c2.6,0,4.8,0.6,6.8,2.1c0.2,0,0.2,0,0.2,0
		c0.3,0.2,0.5,0.3,0.6,0.5c0.6-0.2,1.3-0.2,1.9-0.3c0.8,0,1.8-0.2,2.7-0.2c16.6-0.2,30,13.4,30,30S304.8,430.2,288.4,430.4z
		 M222.8,158.2c11.3-8.5,103.4-65.5,140.8-65.3c0,0,4-0.3,8.1,2.1c-0.2,1.8-0.2,3.5-0.2,5.3c-16.9-0.3-35.6,6-48.7,24.2
		c-17.3,7.4-73.2,38.1-91.8,57.7c-1.9-1.5-13.5-2.9-23.4,3.4C198.1,177.8,214.9,164.1,222.8,158.2z M416.7,103.8
		c-1.1-11.4,12.4-11,12.4-11c40.3,1.8,114,45.2,140.8,65.3c7.9,6,24.7,19.7,15.2,27.4c-10.5-6.6-21.1-5.2-23.1-3.7
		c-22.1-24.2-71.3-48.9-87.6-55.5c-25.8-10.2-46.8-15.8-55.3-17.3C418.4,107.4,416.9,105.8,416.7,103.8z"/>
	<path fill="#F5BA6D" d="M577.8,591.8c7.6,20.8,11,52.6-7.3,72.4c-4.7,4.8-29.2,7.7-26.9,0.8c6.1-19.4,7.3-72.9-4.4-86.4
		c5.5,16.3,7.6,66.6-1,87.6c-4.2,10.2-39.5,7.7-42.3,1.3c-8.4-19.7-1.6-62.6,8.2-90.3c-20.5,28.4-16.4,77.6-14.8,84.5
		c1.5,6.3,2.9,8.1-2.3,7.6c-7.9-0.5-17.7-1-24.7-4.5c-5.6-2.9-24-31.9-0.3-73.7c5-8.7,14.8-17.7,51.4-17.7
		C566.4,573.1,575.8,586,577.8,591.8z M394.2,612.6c17.7,0.5,38.2-7.3,49.3-11.8c3.2-1.3,6.5-2.7,9.4-4c0.5-0.2,1-0.5,1.5-0.6
		c1.1-2.4,2.4-5,3.9-7.4c0.6-1.3,1.5-2.6,2.4-3.9c-0.6,0.2-1.1,0.3-1.6,0.5c-29.8,11-31.4,18.9-62.7,19.5
		c-12.9,0.2-26.8-2.9-39.5-8.1c-7.9-3.7-17.3-8.4-31.4-13.4c-0.6-0.2-1.3-0.5-1.9-0.6c2.3,2.3,3.9,4.8,4.8,7.9
		c0.5,1.1,1,2.4,1.3,3.7c0.5,0.2,0.8,0.3,1.3,0.6c3.7,1.6,8.1,3.4,12.9,5.5C358.9,606.6,375.5,612.1,394.2,612.6z M355.8,110.9
		c18.7-6.5,40.8-2.6,52.7,6.3c4.4,3.2,3.4-0.2,1.5-2.3c-6.1-6.9-19.4-13.1-34.3-14.2c0.2-12.7,5.8-23.7,7.1-26.1
		c8.7-15.3,21.9,18.1,23.5,21.4c1.5,3.1,15.2,38.7,36.3,50.5l1.3,0.6c2.1,1,4.4,1,6.5-0.3l0.3-0.2c37.3,13.4,70.8,34.3,90,55.3
		c30,32.9,38.9,75.6,44.7,95.1c4.5,15.5,7.7,56.9,7.3,100.1c-0.2,12.9-0.5,26-1.3,38.5c-1,16.4-2.7,31.9-5,45.2
		c-1.3,6.8-4.8,34.7-31.6,58.2c-13.5,11.9-32.6,21.8-60.8,29.7c-6,1.6-12.4,3.2-19.2,4.7c-0.6,0.2-1.3,0.3-2.1,0.5
		c18.5-19.8,27.3-40.2,26-60.6c-1.5-22.7-15.2-41.1-27.3-53.4c6.6,4,14.4,7.4,23.7,9.8c0.2,0,0.5,0.2,1,0.3
		c8.9,2.6,17.4,3.9,25.3,3.9c23.4,0,41.6-11.3,51.8-32.7c17.1-36.4,20.8-85.8,10.5-139v-0.2c-11-56-30.6-61.9-37.9-64l-0.3-0.2
		c-33.5-10.2-65.8,27.1-69.5,31.3c-34.8,41.4-38.9,82.4-38.9,109.7c0,16.3,0,44.5,17.1,66c-0.6-0.6-1.3-1-1.6-1.3
		c-26-23.4-37.1-44-43.7-56.3c-4.7-8.5-7.4-13.7-12.1-14h-0.2h-0.2c-4.7,0.2-7.4,5.3-12.1,14c-6.6,12.4-17.7,33.1-43.7,56.3
		c-0.3,0.3-1,0.8-1.6,1.3c17.1-21.4,17.1-49.5,17.1-66c0-27.3-4-68.2-38.9-109.7c-3.5-4.2-36-41.4-69.5-31.3l-0.3,0.2
		c-7.4,2.3-26.9,8.1-37.9,64v0.2c-10.5,53.2-6.8,102.6,10.5,139c10.2,21.4,28.4,32.7,51.8,32.7c7.9,0,16.3-1.3,25.3-3.9
		c0.5-0.2,0.8-0.2,1-0.3c9.4-2.4,17.3-5.8,23.7-9.8c-12.3,12.4-25.8,30.8-27.3,53.4c-1.3,20.3,7.4,40.8,26,60.6
		c-40.3-8.4-65.5-20-82.1-34.7c-26.6-23.7-30.3-51.4-31.6-58.2c-2.9-15.8-4.7-34.7-5.6-54.7c-0.2-3.9-0.3-7.6-0.5-11.4
		c-1.5-49,1.8-100.1,7.1-117.9c5.8-19.5,14.8-62.4,44.7-95.1c18.9-20.6,51.6-41.1,88-54.5c6.1,0,9.5-1.1,9.8-1.1
		c3.7-1.3,1.8-3.2,0-2.4c-1,0.5-16.3,1.8-21.6-1.5c-2.7-1.6-4.4-4.7-2.3-9C332.2,121.6,342.9,115.4,355.8,110.9z M342.1,230.6
		c-8.9-12.9,9.7-66,10-67.4c0.6-2.4-0.6-3.2-1.8-1.1c-28.9,58.9-13.5,75-8.4,76.4c12.7,3.7,21.9-9.4,32.4-19.7
		c-0.2,2.3-7.3,26.1,7.7,32.6c18.4,7.9,34.2-28.9,35-32.7c1.5-6.6-1.3-3.9-2.7-1.6c-18.9,31.9-40.3,43.1-37.1-1.8
		c31.6-42.6,46-50.3,49.5-52.4c3.4-1.9,2.7-3.1,0.3-2.9c-3.9,0.5-21.1,7.3-54.3,49.7C370.5,212.7,347.6,238.5,342.1,230.6z
		 M259.8,573.3c-36.6,0-46.4,9-51.4,17.7c-23.7,41.9-5.3,71,0.3,73.7c6.9,3.5,16.8,4,24.7,4.5c5.2,0.5,4.4-1.3,2.4-7.4
		c-2.6-7.9-6.9-57.4,14.7-84.7c-9.8,27.7-16.3,69.7-8.2,90.3c2.6,6.6,38.1,8.9,42.3-1.3c8.5-21,6.5-71.3,1-87.6
		c11.8,13.5,12.9,67.7,4.4,86.9c-2.9,6.6,22.3,3.5,26.9-1.3c16.4-17.1,14.7-51.4,7.3-72.4C321.9,586,312.6,573.1,259.8,573.3z"/>
	<path fill="#E8D6BF" d="M456.9,574.7l1.5-0.3c1-0.2,1.9-0.3,2.9-0.5l6.8-1.3c18.7-19.5,27.6-39.3,26.6-59
		c-2.1-33.1-32.3-56.9-42.1-64.8c-1.3-1-2.1-1.8-2.7-2.3c-26.6-23.7-37.9-44.8-44.7-57.4c-3.5-6.6-6.3-11.6-8.5-11.8
		c-2.3,0.2-5,5.2-8.5,11.8c-6.8,12.6-18.1,33.5-44.7,57.4c-0.5,0.5-1.5,1.3-2.7,2.3c-9.8,7.7-40,31.8-42.1,64.8
		c-1.3,19.7,7.6,39.5,26.3,59l6.8,1.3c1,0.2,1.9,0.3,2.9,0.5l1.5,0.3c0.3,0,0.6,0.2,1,0.2c-0.6-2.7,0.5-3.4,1-3.7
		c1.9-1.1,3.7,1.1,4.8,2.6c6.9,9.2,26.1,24.7,53.7,24c27.6,0.5,46.8-14.8,53.7-24c1.1-1.6,2.7-3.9,4.8-2.6c0.5,0.3,1.6,1,1,3.7
		C456.3,574.9,456.6,574.7,456.9,574.7z M454.8,521.5c0,1.8-1.5,3.2-3.2,3.2c-1.8,0-3.2-1.5-3.2-3.2c0-1.8,1.5-3.2,3.2-3.2
		S454.8,519.7,454.8,521.5z M450.6,499.2c1.8,0,3.2,1.5,3.2,3.2c0,1.8-1.5,3.2-3.2,3.2c-1.8,0-3.2-1.5-3.2-3.2
		C447.4,500.7,448.8,499.2,450.6,499.2z M365.8,434.6c6.3-5.8,29.3-6.3,30.5-6.3c1.3-0.2,24.4,0.5,30.5,6.3c0.6,0.8,0.3,1.6-1.8,1
		c-10.5-3.4-28.1-3.2-28.7-3.2c-0.5,0-18.2-0.2-28.7,3.2C365.5,436.2,365.1,435.4,365.8,434.6z M355.5,512.1c1.8,0,3.2,1.5,3.2,3.2
		c0,1.8-1.5,3.2-3.2,3.2c-1.8,0-3.2-1.5-3.2-3.2C352.2,513.6,353.7,512.1,355.5,512.1z M340.8,499.2c1.8,0,3.2,1.5,3.2,3.2
		c0,1.8-1.5,3.2-3.2,3.2c-1.8,0-3.2-1.5-3.2-3.2C337.6,500.7,339,499.2,340.8,499.2z M339.8,518.3c1.8,0,3.2,1.5,3.2,3.2
		c0,1.8-1.5,3.2-3.2,3.2c-1.8,0-3.2-1.5-3.2-3.2C336.6,519.7,338.1,518.3,339.8,518.3z M402.9,562.8c-1.9,0.2-4,0.2-6.3,0.2
		c-2.3,0-4.4,0-6.3-0.2c-24-1-66-17.9-77.1-59c-3.5,1.9-6.3,4.7-7.6,5.8c-0.3,0.2-0.5,0.3-0.6,0.5c-1.1,1-1.9,0.6-2.3,0.5
		c-0.8-0.5-1-1.6-0.6-2.9c0.5-1.6,3.4-6,7.9-8.4c3.7-1.9,7.7-2.4,11.9-1.1c0.8,0.2,1.3,0.6,1.6,1.1c0.2,0.5,0.2,1,0,1.5
		c-0.5,1.3-1.8,1.1-2.9,1.1h-0.3c-1.3,0-2.7,0.2-4.2,0.6c11.8,33.1,37.7,51.1,77.2,54c0.3,0,0.6,0,1,0l-1.5-55.8
		c-12.3-1-18.5-5.5-23.2-8.9c-12.1-8.7-17.6-23.2-16.4-32.6c1.8-15.8,16.8-24.5,42.3-24.7c0.5,0,0.8,0,1,0c0.2,0,0.5,0,1,0
		c25.5,0.2,40.5,9,42.3,24.7c1.1,9.4-4.4,23.9-16.4,32.6c-4.7,3.2-11.1,7.7-23.2,8.9l-1.5,55.8c0.3,0,0.6,0,1,0
		c39.5-2.9,65.5-21.1,77.2-54c-1.5-0.5-2.9-0.6-4.2-0.6h-0.3c-1.1,0-2.4,0.2-2.9-1.1c-0.2-0.5-0.2-1,0-1.5c0.2-0.5,0.8-0.8,1.6-1.1
		c4.2-1.3,8.2-1,11.9,1.1c4.5,2.4,7.4,6.8,7.9,8.4c0.3,1.3,0,2.4-0.3,2.9c-0.3,0.2-1.1,0.5-2.3-0.5c-0.2,0-0.3-0.3-0.6-0.5
		c-1.3-1.3-4-3.9-7.6-5.8C468.8,544.9,426.9,561.8,402.9,562.8z M439.2,515.4c0,1.8-1.5,3.2-3.2,3.2c-1.8,0-3.2-1.5-3.2-3.2
		c0-1.8,1.5-3.2,3.2-3.2C437.7,512.1,439.2,513.6,439.2,515.4z M374.5,653.6c-1,12.6-5.8,20.2-15,23.5c1.6,34.7,31.6,47.2,36.4,47.2
		c18.2-7.4,31.9-32.9,31.9-47.1c-7.9-2.4-14.8-11-15.2-23.7C405.6,652,377.7,652.4,374.5,653.6z M422.9,678.4
		c0.2,2.7-2.9,26.3-27.4,40.8c-2.3-0.6-25.5-6.8-31.6-40.5c11.3-5.3,12.6-17.7,12.9-19.7c10.5-0.8,26.3-0.2,32.7,0
		C410.5,668.9,417.6,677.1,422.9,678.4z M405,620.5c0.3,5.5,3.4,23.7-3.2,23.9c-1.9,0-10.3,0-15.3,0c-6-0.2-3.5-18.5-3.2-23.9
		c0.2-2.9,0.8-3.4,3.4-3.4c1.9,0,14.7,0,15,0C404.2,617.1,404.8,617.6,405,620.5z"/>
	<path fill="#FFFFFF" d="M398.8,691.1c0-1.5-0.6-2.7-1.8-3.7c0.2-0.7,1.9-6.3,1.9-6.6c4.2,1.8,6.4,5.7,6.4,10.4
		c0,1.3-0.2,2.4-0.5,3.5C403.8,694.2,400,691.6,398.8,691.1z M393.9,686.1c0.5,0,1.1,0.2,1.6,0.3c1.6-4.4,3.1-10.6-1.8-10.6
		c-4.8,0-3.4,6.6-1.9,10.8C392.4,686.3,393,686.1,393.9,686.1z M550.1,426c4.4-2.3,10.3-5.3,13.1-14c0.8-2.3,1.3-4.5,1.8-6.6
		c7.7-42.6-18.9-75.5-51.9-75.5c-0.6,0-1.1,0-1.8,0c-13.1,0.5-58.1,5.6-56,65.8c0.5,11.9,4.5,21,6.6,25.6c2.1,4.7,3.9,7.4,5.8,9
		c1.8,1.5,4,2.1,7.7,3.1c0.8,0.2,1.5,0.3,2.3,0.5c-10.2-8.1-16.1-20.3-16.1-33.5c0-23.5,19.2-42.7,42.7-42.7
		c23.5,0,42.7,19.2,42.7,42.7c0,12.4-5.3,24-14.5,32.1c8.1-2.1,13.9-4.5,16.4-5.8C549.3,426.4,549.6,426.2,550.1,426z M393.9,694.7
		c1.9,0,3.5-1.6,3.5-3.5c0-1.9-1.6-3.5-3.5-3.5s-3.5,1.6-3.5,3.5C390.3,693.1,391.9,694.7,393.9,694.7z M398.4,693.1
		c-0.5,1.1-1.5,2.1-2.6,2.6c2.1,4.2,5.7,9.6,9.1,6C408.3,698.3,402.7,694.9,398.4,693.1z M390,702.4c1.1,0.5,2.4,0.6,3.9,0.6
		c1.5,0,2.9-0.3,4.2-0.8c-0.8-1.2-4.4-6.1-4.4-6.1S390.8,701.2,390,702.4z M382.7,695.2c0.4-0.4,5-3.4,6.1-4c0-1.3,0.5-2.4,1.3-3.4
		c-0.3-0.9-1.6-6.3-1.8-6.9c-3.7,1.9-6.3,6-6.3,10.5C382.1,692.6,382.4,694,382.7,695.2z M411.1,688.7l-4.2,0
		c0.7,1.8,0.5,3.9,0.3,4.4l4,0c1.1,0,1.8-1,1.8-2C413,689.2,411.6,688.7,411.1,688.7z M406.3,686.5l7.2-0.2c0.5,0,1.9-0.7,1.9-2.2
		c0-1.8-1.6-2.3-2.1-2.3l-9.7,0.4C405.2,683.5,405.9,684.6,406.3,686.5z M389.2,693.1c-4.2,2.1-9.5,5.8-6,9s6.8-2.1,8.6-6.3
		C390.6,695.3,389.7,694.4,389.2,693.1z M330.5,421.4c2.6-5.3,5.5-13.7,6.6-25.6c-1.6-60.2-42.9-65.3-56-65.8c-0.6,0-1.1,0-1.8,0
		c-33.1,0-59.7,32.9-51.9,75.5c0.5,2.1,1,4.4,1.8,6.6c2.7,8.7,8.7,11.8,13.1,14c0.5,0.2,1,0.5,1.3,0.6c2.3,1.1,6.9,3.1,13.5,5
		c-8.4-8.2-13.1-19.4-13.1-31.3c0-24.4,19.8-44.2,44.2-44.2c24.4,0,44.2,19.8,44.2,44.2c0,12.6-5.3,24.5-14.7,32.9
		C323.7,431.2,327.4,427.5,330.5,421.4z M373.2,682.4c-1.1,0.2-2.2,0.8-2.1,2.6c0.1,1.2,1.5,1.9,2.1,1.9l7.8-0.2
		c0.6-1.6,1.2-3.2,2.5-4.5L373.2,682.4z M380.3,689c0,0-3.3,0-4.5,0c-1,0-1.8,0.8-1.8,2.3c0,1.7,1.5,2,1.8,2c1.2,0,4.5,0.1,4.5,0.1
		C380,692.4,380.1,689.9,380.3,689z M275.8,391.4c6.5,0,11.8-5.3,11.8-11.8c0-3.5-1.6-6.8-4.2-8.9c-0.2-0.2-0.3-0.3-0.6-0.5
		c0,0,0,0-0.2,0c-1.9-1.5-4.2-2.1-6.8-2.1c-6.5,0-11.8,5.3-11.8,11.8c0,0.5,0,1,0.2,1.3c0,0.2,0,0.2,0,0.3c0,0.2,0,0.3,0.2,0.5
		C265.5,387,270.2,391.4,275.8,391.4z M505.1,379.6c0,6.3,5.3,11.6,11.6,11.6c5.3,0,9.7-3.4,11.1-8.2c0-0.2,0.2-0.3,0.2-0.5
		c0.2-0.3,0.2-0.6,0.2-1.1s0.2-1.1,0.2-1.8c0-6.3-5.3-11.6-11.6-11.6c-2.6,0-5,0.8-6.9,2.3c-0.2,0.2-0.3,0.3-0.5,0.5
		C506.7,372.8,505.1,376,505.1,379.6z"/>
</g>
</svg>
